<svg width="168" height="202" viewBox="0 0 168 202" fill="none" xmlns="http://www.w3.org/2000/svg">
<g filter="url(#filter0_d_2_16)">
<path d="M81.5795 30.1654C81.3779 29.8546 81.1993 29.576 81.0487 29.3305C80.9574 29.1806 80.8354 29.0649 80.6957 28.996C80.556 28.9272 80.404 28.9077 80.2561 28.9397C80.1083 28.9717 79.9702 29.0539 79.8568 29.1776C79.7434 29.3013 79.659 29.4616 79.6127 29.6412C79.1599 31.3821 78.4711 33.0111 77.5768 34.4562C77.6295 30.3415 76.9819 23.0807 72.2452 19.1701C72.1209 19.0673 71.9767 19.0088 71.8281 19.0009C71.6795 18.993 71.5319 19.036 71.4011 19.1253C71.2704 19.2146 71.1613 19.3468 71.0854 19.5079C71.0096 19.669 70.9699 19.853 70.9705 20.0403C70.9705 23.434 69.5263 27.0504 67.0156 29.9593C64.5864 32.7749 58.942 40.216 59.0005 48.4589C59.0391 53.8695 61.1055 61.2298 66.2775 64.696C66.3898 64.7716 66.5147 64.8133 66.642 64.8179C66.7694 64.8224 66.8959 64.7896 67.0115 64.7221C67.1271 64.6546 67.2287 64.5543 67.3082 64.4289C67.3878 64.3036 67.4431 64.1567 67.4699 63.9999C67.9504 61.7418 68.7423 59.6075 69.8094 57.6942C70.9697 55.3488 72.0666 53.1361 72.167 50.0397C72.1733 49.8411 72.2248 49.649 72.3155 49.4862C72.4061 49.3235 72.532 49.197 72.6782 49.1219C72.8244 49.0467 72.9846 49.0261 73.1399 49.0625C73.2951 49.0989 73.4387 49.1907 73.5536 49.327C76.4733 52.786 78.1932 57.7263 78.6228 63.7098C78.6366 63.8782 78.6831 64.0398 78.758 64.1804C78.833 64.3209 78.9342 64.4362 79.0527 64.5162C79.1713 64.5961 79.3036 64.6382 79.4381 64.6389C79.5726 64.6396 79.7052 64.5987 79.8242 64.5199C83.5413 62.0202 86.4618 57.2684 86.9276 49.9289C87.5908 39.4857 83.5306 33.1903 81.5795 30.1654Z" fill="url(#paint0_linear_2_16)"/>
</g>
<defs>
<filter id="filter0_d_2_16" x="-21.0025" y="-3.85786" width="188.005" height="205.823" filterUnits="userSpaceOnUse" color-interpolation-filters="sRGB">
<feFlood flood-opacity="0" result="BackgroundImageFix"/>
<feColorMatrix in="SourceAlpha" type="matrix" values="0 0 0 0 0 0 0 0 0 0 0 0 0 0 0 0 0 0 127 0" result="hardAlpha"/>
<feOffset dy="57.1447"/>
<feGaussianBlur stdDeviation="40.0013"/>
<feColorMatrix type="matrix" values="0 0 0 0 1 0 0 0 0 0.419608 0 0 0 0 0.34902 0 0 0 0.24 0"/>
<feBlend mode="normal" in2="BackgroundImageFix" result="effect1_dropShadow_2_16"/>
<feBlend mode="normal" in="SourceGraphic" in2="effect1_dropShadow_2_16" result="shape"/>
</filter>
<linearGradient id="paint0_linear_2_16" x1="73" y1="27.7686" x2="90.5968" y2="51.1015" gradientUnits="userSpaceOnUse">
<stop stop-color="#FF6B59"/>
<stop offset="1" stop-color="#D35646"/>
</linearGradient>
</defs>
</svg>
